<svg version="1.1" id="Layer_1" xmlns="http://www.w3.org/2000/svg" xmlns:xlink="http://www.w3.org/1999/xlink" x="0px" y="0px" viewBox="0 0 209.5 48" style="enable-background:new 0 0 209.5 48;" xml:space="preserve">
 <style type="text/css">
  .st0{fill:#FFFFFF;}
 </style>
 <g>
  <path class="st0" d="M110.2,29c-5.3,0-9.5,4.1-9.5,9.5s4.3,9.5,9.5,9.5c5.3,0,9.5-4.2,9.5-9.5C119.7,33.1,115.5,29,110.2,29z
		 M110.2,32.8c3.2,0,5.6,2.4,5.6,5.7s-2.5,5.7-5.6,5.7c-3.2,0-5.6-2.4-5.6-5.7C104.5,35.2,107,32.8,110.2,32.8z">
  </path>
  <path class="st0" d="M189.3,41.9v-8.7h4.5v-3.8h-4.5v-5.1l-3.9,1.2v3.9h-3.3v3.8h3.3v8.7c0,4.7,2.4,6.4,8.4,5.6V44
		C190.8,44.2,189.3,44.2,189.3,41.9z">
  </path>
  <path class="st0" d="M209.5,43.9h-8.9l8.9-10.7l0,0v-3.6h-13.8v3.6h8.9l-8.9,10.7l0,0v3.7h13.8V43.9z">
  </path>
  <path class="st0" d="M52.5,16.2L52.5,16.2L52.5,16.2L52.5,16.2L52.5,16.2L52.5,16.2L52.5,16.2L52.5,16.2
		C52.5,16.3,52.5,16.3,52.5,16.2C52.5,16.3,52.5,16.3,52.5,16.2C52.5,16.3,52.5,16.3,52.5,16.2z">
  </path>
  <path class="st0" d="M53.8,1.2l4-1.2v25.3h-4v-1.4c-1.8,1.3-4.1,2-6.6,1.8c-4.4-0.4-8.1-4-8.5-8.5c0-0.4-0.1-0.7-0.1-1.1l0,0l0,0
		l0,0l0,0l0,0l0,0c0-0.3,0-0.6,0.1-0.9c0-0.1,0-0.1,0-0.2l0,0l0,0v-0.1v-0.1c0-0.2,0.1-0.4,0.1-0.6c0-0.1,0-0.2,0.1-0.2v-0.1v-0.1
		c0-0.2,0.1-0.3,0.1-0.5c0-0.1,0.1-0.2,0.1-0.3l0,0v-0.1l0,0c0.1-0.2,0.1-0.3,0.2-0.5c0-0.1,0.1-0.2,0.1-0.3c0,0,0,0,0-0.1
		c0.1-0.2,0.2-0.3,0.2-0.5c0.1-0.1,0.1-0.2,0.2-0.3l0,0c0.1-0.1,0.2-0.3,0.3-0.4c0.1-0.1,0.2-0.2,0.3-0.3s0.2-0.3,0.3-0.4
		c0.1-0.1,0.2-0.2,0.3-0.3s0.2-0.2,0.4-0.4c0.1-0.1,0.2-0.2,0.3-0.3s0.3-0.2,0.4-0.3c0.4-0.2,0.5-0.3,0.6-0.4
		c0.1-0.1,0.3-0.2,0.4-0.3h0.1C43.3,8,43.4,8,43.5,7.9c0.2-0.1,0.3-0.2,0.5-0.2h0.1l0,0c0.1,0,0.2-0.1,0.3-0.1
		c0.2-0.1,0.3-0.1,0.5-0.2l0,0l0,0H45l0,0c0.1,0,0.2-0.1,0.3-0.1c0.2-0.1,0.3-0.1,0.5-0.1l0,0h0.1H46c0.1,0,0.2,0,0.3-0.1
		c0.2,0,0.4-0.1,0.6-0.1l0,0H47c0.1,0,0.1,0,0.2,0c0.3,0,0.7-0.1,1-0.1c2.1,0,4,0.7,5.6,1.8L53.8,1.2L53.8,1.2z M47,21.7
		c3.6,0.8,6.8-2,6.8-5.4v-0.1c0-3.1-2.5-5.6-5.6-5.6c-0.2,0-0.4,0-0.6,0h-0.1l0,0c0,0,0,0-0.1,0s-0.3,0-0.4,0.1h-0.1l0,0l0,0
		c-0.1,0-0.2,0.1-0.3,0.1s-0.2,0.1-0.2,0.1c-0.1,0-0.2,0.1-0.3,0.1s-0.1,0.1-0.2,0.1c-0.1,0.1-0.2,0.1-0.3,0.2
		c-0.1,0-0.1,0.1-0.2,0.1c-0.1,0.1-0.2,0.1-0.3,0.2c0,0,0,0-0.1,0l-0.1,0.1c-0.1,0.1-0.2,0.2-0.3,0.3l0,0l0,0l0,0l0,0
		c0,0,0,0-0.1,0.1s-0.3,0.3-0.4,0.4l0,0l0,0c-0.1,0.1-0.2,0.3-0.3,0.4c0,0,0,0.1-0.1,0.1c0,0,0,0,0,0.1c-0.1,0.1-0.1,0.2-0.2,0.3
		c0,0.1-0.1,0.1-0.1,0.2l0,0c-0.1,0.1-0.1,0.2-0.1,0.3s-0.1,0.1-0.1,0.2l0,0c0,0.1-0.1,0.2-0.1,0.3s0,0.2-0.1,0.2
		c0,0.1,0,0.2-0.1,0.4c0,0.1,0,0.2,0,0.2c0,0.1,0,0.3,0,0.4v0.1c0,0.1,0,0.1,0,0.2c0,0.4,0,0.8,0.1,1.3C43.2,19.6,44.9,21.3,47,21.7
		z">
  </path>
  <path class="st0" d="M14.1,16.2L14.1,16.2L14.1,16.2L14.1,16.2C14.1,16.3,14.1,16.3,14.1,16.2C14.1,16.3,14.1,16.3,14.1,16.2z">
  </path>
  <path class="st0" d="M15.1,7.3v1.2c-1.5-1.1-3.5-1.8-5.5-1.8C4,6.7-0.5,11.6,0.1,17.3c0.5,4.4,4.1,8,8.5,8.5
		c2.5,0.2,4.8-0.5,6.6-1.8v1.4h4V7.3H15.1z M15.1,16.3c0,3.5-3.2,6.2-6.8,5.4c-2.1-0.4-3.8-2.1-4.3-4.3c-0.7-3.6,2.1-6.8,5.6-6.8
		C12.6,10.6,15.1,13.1,15.1,16.3L15.1,16.3z">
  </path>
  <path class="st0" d="M130.7,29.2v4.2c-2.6-0.2-5.6,1-5.6,5.1v9.1h-3.9V29.5h3.9v3C126.2,30.1,128.4,29.2,130.7,29.2z">
  </path>
  <path class="st0" d="M140.1,29c-5.3,0-9.5,4.1-9.5,9.5s4.3,9.5,9.5,9.5c5.3,0,9.5-4.2,9.5-9.5C149.7,33.1,145.5,29,140.1,29z
		 M140.1,32.8c3.2,0,5.6,2.4,5.6,5.7s-2.5,5.7-5.6,5.7c-3.2,0-5.6-2.4-5.6-5.7S137,32.8,140.1,32.8z">
  </path>
  <path class="st0" d="M175.4,29.5l-5.7,18.1h-3.8l-3.8-12.2l-3.8,12.2h-3.8l-5.7-18.1h4.1l3.5,12.5l3.8-12.5h3.7l3.8,12.5l3.5-12.5
		H175.4z">
  </path>
  <path class="st0" d="M180.6,29.5h-3.9v18.1h3.9V29.5z">
  </path>
  <path class="st0" d="M68.8,7v4.2c-2.6-0.2-5.6,1-5.6,5.1v9.1h-3.9V7.3h3.9v3C64.3,7.9,66.5,7,68.8,7z">
  </path>
  <g>
   <path class="st0" d="M92.3,29c-2.5,0-4.4,0.9-5.6,2.8v-9.9l-3.2-1.8c-0.2,0.3-0.4,0.6-0.7,0.8c-1,0.8-2.3,1.4-4,1.4
			c-2.9,0-5.2-1.5-5.8-4.3h14.5c0-0.5,0.1-1.1,0.1-1.6c0-5.2-3.7-9.5-9.1-9.5c-5.6,0-9.5,4.1-9.5,9.5c0,5.4,3.8,9.5,9.8,9.5
			c1.5,0,2.8-0.3,4-0.8v22.5h3.9v-9.7c0-3.7,2-5.2,4.6-5.2c2.4,0,4,1.5,4,4.2v10.7h3.9V36.4C99.2,31.7,96.3,29,92.3,29z M78.4,10.4
			c2.4,0,4.6,1.3,5.2,4.4H73C73.5,12.1,75.5,10.4,78.4,10.4z">
   </path>
  </g>
  <path class="st0" d="M102.9,20c-0.9,1.3-2.5,2.2-4.7,2.2c-2.9,0-5.2-1.4-5.8-4.3h14.4c0.1-0.5,0.1-1.1,0.1-1.6
		c0-5.2-3.7-9.5-9.1-9.5c-5.7,0-9.5,4.2-9.5,9.5c0,5.4,3.9,9.5,9.8,9.5c3.5,0,6.3-1.5,7.9-3.9L102.9,20z M97.9,10.4
		c2.4,0,4.6,1.3,5.2,4.4H92.4C93,12.1,95,10.4,97.9,10.4z">
  </path>
  <path class="st0" d="M147.6,22.3c2.2,0,3.8-1,4.7-2.2l3.2,1.9c-1.7,2.5-4.4,3.9-7.9,3.9c-6,0-9.8-4.1-9.8-9.5s3.9-9.5,9.5-9.5
		c5.4,0,9.1,4.3,9.1,9.5c0,0.5-0.1,1.1-0.1,1.6h-14.4C142.4,20.8,144.7,22.3,147.6,22.3z M152.4,14.8c-0.5-3.1-2.8-4.4-5.2-4.4
		c-2.9,0-4.9,1.7-5.5,4.4C141.7,14.8,152.4,14.8,152.4,14.8z">
  </path>
  <path class="st0" d="M176.7,25.4h3.9v-3.5h-3.9V25.4z">
  </path>
  <path class="st0" d="M30.2,6.8c-2.5,0-4.4,0.9-5.6,2.8V7.5l0,0V7.2h-3.9v1.5l0,0v16.6h3.9v-9.7c0-3.7,2-5.2,4.6-5.2
		c2.5,0,4,1.4,4,4.2v10.7h3.9v-11C37.2,9.6,34.3,6.8,30.2,6.8z">
  </path>
  <path class="st0" d="M162.2,25.4h-3.9V7.3h3.9v2.3c1.2-1.9,3.1-2.8,5.6-2.8c4,0,6.9,2.7,6.9,7.4v11.1h-3.9V14.7
		c0-2.7-1.6-4.2-4-4.2c-2.6,0-4.6,1.5-4.6,5.2V25.4z">
  </path>
  <path class="st0" d="M112.1,12.3c0-1.3,1.2-1.9,2.6-1.9s2.6,0.6,3.3,1.8l3.4-1.7c-1.3-2.3-3.7-3.7-6.7-3.7c-3.7,0-6.6,2.1-6.6,5.5
		c0,3.8,3.3,4.7,6.1,5.5c2,0.6,3.6,1,3.6,2.4s-1.3,2-3.1,2c-1.7,0-3.1-0.7-3.8-2l-3.5,1.7c1.2,2.4,3.8,3.9,7.2,3.9
		c3.9,0,7.1-2,7.1-5.6c0-3.9-3.4-4.9-6.1-5.6C113.8,14.1,112.1,13.6,112.1,12.3z">
  </path>
  <path class="st0" d="M129.8,10.4c-1.4,0-2.6,0.6-2.6,1.9c0,1.4,1.7,1.8,3.6,2.4c2.8,0.8,6.1,1.7,6.1,5.6c0,3.6-3.1,5.6-7.1,5.6
		c-3.5,0-6-1.5-7.2-3.9l3.5-1.7c0.7,1.3,2,2,3.8,2c1.7,0,3.1-0.6,3.1-2c0-1.3-1.7-1.8-3.6-2.4c-2.8-0.8-6.1-1.7-6.1-5.5
		c0-3.4,2.9-5.5,6.6-5.5c2.9,0,5.4,1.4,6.7,3.7l-3.4,1.7C132.4,11,131.2,10.4,129.8,10.4z">
  </path>
 </g>
</svg>