<svg width="411" height="105" viewBox="0 0 411 105" fill="none" xmlns="http://www.w3.org/2000/svg">
<path d="M90 49.6H61.6L47.5 25.1L61.6 0.5H90L104.2 25L90 49.6ZM64.2 45.1H87.3L98.9 25.1L87.4 5H64.2L52.6 25L64.2 45.1Z" fill="black"/>
<path d="M90 104.4H61.6L47.5 79.8001L61.7 55.3H90L104.2 79.8001L90 104.4ZM64.2 99.8001H87.3L98.9 79.8001L87.3 59.8H64.2L52.6 79.8001L64.2 99.8001Z" fill="black"/>
<path d="M136.5 27.9H108.2L94 52.4L108.2 77H136.5L150.7 52.4L136.5 27.9Z" fill="black"/>
<path d="M43 27.9H14.7L0.5 52.4L14.7 77H43L57.2 52.4L43 27.9Z" fill="black"/>
<path d="M183.7 74V30.6H191.6V52.1L190.3 59.1L191.6 66.2V74H183.7ZM199.7 74.6C197.6 74.6 195.7 74.2 194.1 73.3C192.5 72.4 191.1 71.2 190.1 69.7C189.1 68.2 188.6 66.5 188.5 64.6V54.2C188.6 52.3 189.1 50.6 190.1 49.1C191.1 47.6 192.5 46.4 194.2 45.6C195.9 44.8 197.7 44.3 199.8 44.3C202.5 44.3 204.9 45 207 46.3C209.1 47.6 210.8 49.4 212 51.7C213.2 54 213.8 56.6 213.8 59.4C213.8 62.2 213.2 64.8 212 67.1C210.8 69.4 209.1 71.2 207 72.5C204.8 73.9 202.4 74.6 199.7 74.6ZM198.4 67.3C199.8 67.3 201.1 67 202.2 66.3C203.3 65.6 204.2 64.7 204.8 63.5C205.4 62.3 205.7 61 205.7 59.4C205.7 57.9 205.4 56.5 204.8 55.4C204.2 54.2 203.3 53.3 202.2 52.6C201.1 51.9 199.8 51.6 198.4 51.6C197 51.6 195.7 51.9 194.6 52.6C193.5 53.3 192.6 54.2 192 55.4C191.4 56.6 191.1 57.9 191.1 59.4C191.1 61 191.4 62.3 192 63.5C192.6 64.7 193.5 65.6 194.6 66.3C195.7 67 197 67.3 198.4 67.3Z" fill="black"/>
<path d="M227.2 74.2L215.1 45H223.6L231.6 67.3H228.7L237 45H245.6L232.7 74.2H227.2ZM219.2 86.1L228 67.4L232.8 74.1L227.5 86H219.2V86.1Z" fill="black"/>
<path d="M247 51.9V45H268.4V51.9H247ZM253.7 74V33H261.6V74H253.7Z" fill="black"/>
<path d="M286.3 74.5999C283.3 74.5999 280.6 73.9999 278.2 72.5999C275.8 71.2999 274 69.4999 272.6 67.1999C271.2 64.8999 270.5 62.2999 270.5 59.3999C270.5 56.4999 271.2 53.9999 272.5 51.6999C273.8 49.3999 275.7 47.5999 278 46.2999C280.3 44.9999 282.9 44.2999 285.7 44.2999C288.5 44.2999 291 44.8999 293.1 46.1999C295.2 47.4999 296.9 49.1999 298.1 51.3999C299.3 53.5999 299.9 55.9999 299.9 58.7999C299.9 59.2999 299.9 59.8999 299.8 60.3999C299.7 60.8999 299.6 61.5999 299.5 62.1999L275.1 62.2999V56.3999L295.8 56.2999L292.6 58.7999C292.5 57.0999 292.2 55.5999 291.7 54.4999C291.2 53.2999 290.4 52.4999 289.4 51.7999C288.4 51.1999 287.1 50.8999 285.6 50.8999C284 50.8999 282.7 51.2999 281.5 51.9999C280.3 52.6999 279.5 53.6999 278.8 54.8999C278.2 56.1999 277.9 57.6999 277.9 59.3999C277.9 61.1999 278.2 62.6999 278.9 63.9999C279.6 65.2999 280.5 66.2999 281.7 66.9999C282.9 67.6999 284.4 67.9999 286 67.9999C287.5 67.9999 288.8 67.7999 290 67.1999C291.2 66.6999 292.2 65.9999 293.1 64.9999L297.7 69.5999C296.3 71.1999 294.6 72.4999 292.6 73.2999C290.8 74.1999 288.6 74.5999 286.3 74.5999Z" fill="black"/>
<path d="M311.9 74L301 45H308.9L316 66.1L313.6 66.2L320.9 45.1H326.6L333.9 66.2L331.5 66.1L338.6 45H346.5L335.7 74H330L322.7 54H324.9L317.6 74H311.9Z" fill="black"/>
<path d="M360.9 74.6C358.3 74.6 355.9 73.9 353.8 72.6C351.7 71.3 350 69.5 348.8 67.2C347.6 64.9 347 62.4 347 59.5C347 56.6 347.6 54 348.8 51.8C350 49.5 351.7 47.7 353.8 46.4C355.9 45.1 358.3 44.4 360.9 44.4C363 44.4 364.8 44.8 366.5 45.7C368.1 46.5 369.4 47.7 370.4 49.2C371.4 50.7 371.9 52.4 372 54.3V64.7C371.9 66.6 371.4 68.3 370.4 69.8C369.4 71.3 368.1 72.5 366.5 73.3C364.8 74.2 363 74.6 360.9 74.6ZM362.3 67.3C364.5 67.3 366.3 66.6 367.6 65.1C369 63.6 369.6 61.8 369.6 59.4C369.6 57.9 369.3 56.5 368.7 55.4C368.1 54.2 367.2 53.3 366.1 52.6C365 51.9 363.7 51.6 362.2 51.6C360.8 51.6 359.5 51.9 358.4 52.6C357.3 53.3 356.4 54.2 355.8 55.4C355.2 56.6 354.9 57.9 354.9 59.4C354.9 61 355.2 62.3 355.8 63.5C356.4 64.7 357.3 65.6 358.4 66.3C359.6 67 360.9 67.3 362.3 67.3ZM369.3 74V66.2L370.6 59.1L369.3 52.1V45H377.1V74H369.3Z" fill="black"/>
<path d="M380.2 74L392 57.4L396.5 62.7L389 74H380.2ZM401.3 74L393.7 62.2L392 61L380.7 45H390L397 55.6L398.5 56.7L410.5 74H401.3ZM398.9 61L394.3 55.7L401.2 45H410L398.9 61Z" fill="black"/>
</svg>
