<svg fill="none" xmlns="http://www.w3.org/2000/svg" viewBox="13.84 17.42 257.77 53.91"> <path d="M99.8893 34.6804C105.537 34.6804 109.342 37.5432 110.572 42.4746H104.39C103.737 40.6044 102.238 39.4133 99.8463 39.4133C96.6548 39.4133 94.5248 41.7571 94.5248 46.0512C94.5248 50.3453 96.6548 52.6682 99.8463 52.6682C102.22 52.6682 103.694 51.6234 104.39 49.6453H110.572C109.342 54.3364 105.551 57.4394 99.8893 57.4394C93.3378 57.4394 88.6726 52.9852 88.6726 46.0686C88.6726 39.1521 93.3378 34.6804 99.8893 34.6804Z" fill="#135594"/> <path d="M123.589 57.422C117.041 57.422 112.089 52.9677 112.089 46.0512C112.089 39.1347 117.206 34.6804 123.754 34.6804C130.302 34.6804 135.419 39.0964 135.419 46.0512C135.419 53.0061 130.18 57.422 123.589 57.422ZM123.589 52.5707C126.619 52.5707 129.527 50.4254 129.527 46.0512C129.527 41.677 126.701 39.5317 123.671 39.5317C120.641 39.5317 117.902 41.6213 117.902 46.0512C117.902 50.4811 120.519 52.5707 123.589 52.5707Z" fill="#135594"/> <path d="M147.252 34.6804C150.896 34.6804 153.391 36.3521 154.743 38.1631V35.0287H160.513V57.0529H154.743V53.8314C153.391 55.7399 150.799 57.4116 147.213 57.4116C141.475 57.4116 136.9 52.8389 136.9 45.9607C136.9 39.0825 141.479 34.6804 147.252 34.6804ZM148.726 39.5561C145.657 39.5561 142.748 41.7815 142.748 45.9537C142.748 50.1259 145.657 52.515 148.726 52.515C151.875 52.515 154.743 50.2095 154.743 46.0338C154.743 41.8581 151.875 39.5735 148.726 39.5735V39.5561Z" fill="#135594"/> <path d="M164.855 27.6456H170.593V57.0634H164.855V27.6456Z" fill="#135594"/> <path d="M184.872 57.422C178.281 57.422 173.49 52.9677 173.49 46.0512C173.49 39.1347 178.152 34.6804 184.872 34.6804C191.42 34.6804 196.045 39.0163 196.045 45.5741C196.052 46.2935 195.998 47.0121 195.884 47.7229H179.303C179.59 50.9792 181.881 52.811 184.75 52.811C187.206 52.811 188.554 51.6165 189.293 50.1468H195.472C194.245 54.2006 190.487 57.422 184.872 57.422ZM179.346 43.9825H190.104C190.021 41.0815 187.647 39.2531 184.7 39.2531C181.967 39.2531 179.794 40.9631 179.346 43.9825Z" fill="#135594"/> <path d="M207.631 57.422C201.941 57.422 197.971 54.2006 197.727 50.1085H203.497C203.701 51.7802 205.29 53.0513 207.592 53.0513C209.894 53.0513 211.07 52.0588 211.07 50.7841C211.07 46.8488 198.258 49.3563 198.258 41.2835C198.258 37.6268 201.614 34.6665 207.223 34.6665C212.705 34.6665 216.022 37.571 216.349 41.9417H210.866C210.701 40.2318 209.31 39.0825 207.058 39.0825C204.931 39.0825 203.83 39.9148 203.83 41.1721C203.83 45.1876 216.381 42.6835 216.564 50.7528C216.557 54.5593 213.157 57.422 207.631 57.422Z" fill="#135594"/> <path d="M229.739 34.6804C235.386 34.6804 239.195 37.5432 240.421 42.4746H234.235C233.579 40.6044 232.084 39.4133 229.688 39.4133C226.497 39.4133 224.367 41.7571 224.367 46.0512C224.367 50.3453 226.497 52.6682 229.688 52.6682C232.066 52.6682 233.54 51.6234 234.235 49.6453H240.414C239.187 54.3364 235.394 57.4394 229.731 57.4394C223.18 57.4394 218.515 52.9852 218.515 46.0686C218.515 39.1521 223.187 34.6804 229.739 34.6804Z" fill="#135594"/> <path d="M253.277 57.422C246.686 57.422 241.899 52.9677 241.899 46.0512C241.899 39.1347 246.56 34.6804 253.277 34.6804C259.825 34.6804 264.45 39.0163 264.45 45.5741C264.458 46.2936 264.403 47.0124 264.285 47.7229H247.711C247.995 50.9792 250.29 52.811 253.155 52.811C255.611 52.811 256.959 51.6165 257.698 50.1468H263.88C262.65 54.2006 258.885 57.422 253.277 57.422ZM247.751 43.9825H258.508C258.426 41.0815 256.052 39.2531 253.105 39.2531C250.372 39.2531 248.221 40.9631 247.751 43.9825Z" fill="#135594"/> <path d="M21.9782 63.447C24.5742 65.9676 28.0532 67.4449 31.7211 67.5844C34.4205 69.9943 37.9534 71.3318 41.62 71.3318C45.2867 71.3318 48.8195 69.9943 51.5189 67.5844C55.1805 67.4343 58.6508 65.9558 61.2442 63.4409C63.8376 60.9261 65.3654 57.558 65.5255 54.0021C68.0069 51.3805 69.384 47.9493 69.384 44.3883C69.384 40.8273 68.0069 37.3961 65.5255 34.7745C65.3704 31.2132 63.8435 27.8385 61.2473 25.319C58.6511 22.7996 55.1752 21.3192 51.5082 21.1713C48.8088 18.7614 45.2759 17.424 41.6093 17.424C37.9426 17.424 34.4098 18.7614 31.7104 21.1713C28.0464 21.3224 24.5741 22.803 21.9799 25.3205C19.3858 27.838 17.8586 31.2092 17.7002 34.7675C15.218 37.3888 13.8404 40.8201 13.8404 44.3813C13.8404 47.9426 15.218 51.3739 17.7002 53.9952C17.8492 57.5567 19.377 60.9324 21.9782 63.447ZM17.1265 44.3761C17.1295 41.8261 18.0356 39.3548 19.6928 37.3769C21.35 35.399 23.6573 34.035 26.2275 33.5138H26.2526C26.5718 33.4511 26.8981 33.4058 27.2244 33.3675C27.2818 33.3675 27.3356 33.3675 27.3929 33.3466C27.7765 33.3076 28.1619 33.2879 28.5476 33.2874C28.9062 33.2874 29.2648 33.3083 29.6234 33.3397L29.9461 33.378C30.1899 33.4093 30.4338 33.4441 30.6633 33.4859L31.0219 33.5556C31.2609 33.609 31.5 33.6682 31.7391 33.7332C31.8359 33.7611 31.9363 33.7854 32.0331 33.8168C32.3594 33.9178 32.675 34.0292 32.987 34.165C33.0264 34.1825 33.0623 34.2034 33.1017 34.2173C33.3742 34.331 33.6396 34.4564 33.8978 34.5934C33.9982 34.6422 34.0914 34.6979 34.1882 34.7501C34.389 34.8616 34.5863 34.9765 34.7763 35.0984L35.0704 35.2899C35.2676 35.4223 35.4612 35.5651 35.6477 35.7113C35.723 35.7671 35.8019 35.8228 35.8736 35.882C36.1282 36.0875 36.3756 36.3034 36.5908 36.5297C36.6374 36.575 36.6804 36.6238 36.7271 36.6725C36.9135 36.8571 37.0856 37.0487 37.2685 37.2472L37.4801 37.5049C37.6235 37.679 37.7598 37.8531 37.8925 38.0377C37.957 38.1283 38.0252 38.2223 38.0861 38.3163C38.226 38.5183 38.3551 38.7273 38.477 38.9397C38.52 39.0129 38.5666 39.0825 38.6097 39.1591C38.7674 39.4447 38.9145 39.7373 39.0436 40.0368C39.0758 40.1099 39.1045 40.183 39.1332 40.2562C39.2049 40.4268 39.2695 40.6044 39.3304 40.7786C38.8474 40.5268 38.3493 40.3035 37.8387 40.1099C37.6881 40.0507 37.5339 40.0019 37.3797 39.9497C37.0211 39.8208 36.641 39.7024 36.2609 39.6014C36.078 39.5527 35.9023 39.5109 35.7087 39.4691C35.3321 39.382 34.9484 39.3159 34.5648 39.2601C34.3926 39.2358 34.2062 39.2044 34.052 39.187C33.4963 39.1218 32.9371 39.0881 32.3773 39.086C29.4762 39.0737 26.6371 39.9019 24.223 41.4646C23.4162 41.9885 22.6643 42.5881 21.9782 43.2547C21.5876 43.64 21.2189 44.0458 20.8738 44.4701C20.7662 44.6025 20.6694 44.7383 20.5654 44.8741C20.3359 45.1806 20.1135 45.4906 19.9091 45.8075C19.8087 45.9677 19.7083 46.1244 19.6151 46.2846C19.4215 46.6143 19.2422 46.9521 19.0772 47.298C19.0055 47.4408 18.9302 47.5836 18.8656 47.7264C18.6494 48.2138 18.4614 48.7126 18.3027 49.2205V49.2518C17.5318 47.7353 17.1295 46.0673 17.1265 44.3761ZM24.2983 27.5585C26.1561 25.7563 28.5959 24.63 31.2079 24.3687C33.8199 24.1074 36.4449 24.7271 38.6419 26.1236H38.6706C38.9396 26.2943 39.1977 26.4719 39.4523 26.6774C39.499 26.7157 39.5528 26.747 39.603 26.7853C39.897 27.0222 40.1839 27.2729 40.46 27.5411C40.7361 27.8092 40.9369 28.0321 41.1772 28.2864C41.2561 28.3804 41.3278 28.4744 41.4031 28.5684C41.5358 28.7356 41.6649 28.9167 41.7868 29.0734C41.9087 29.2301 41.9589 29.3207 42.0414 29.4461C42.1238 29.5714 42.2278 29.7386 42.3139 29.8884C42.4 30.0381 42.486 30.1774 42.5649 30.3237C42.6438 30.47 42.6868 30.5744 42.7478 30.7033C42.928 31.0761 43.086 31.4587 43.2211 31.8491C43.2391 31.8978 43.2606 31.9466 43.2749 31.9954C43.3395 32.1939 43.3933 32.3924 43.4471 32.5944L43.5331 32.9183C43.5761 33.1133 43.6156 33.3083 43.6514 33.5033C43.673 33.6252 43.6909 33.7541 43.7088 33.8795C43.7339 34.0675 43.759 34.2556 43.777 34.4436C43.7949 34.6317 43.777 34.7919 43.8021 34.9417C43.8021 35.2342 43.8021 35.5233 43.8021 35.8123C43.8021 35.9656 43.8021 36.1188 43.7805 36.2686C43.759 36.4183 43.7411 36.6377 43.7196 36.8223C43.7196 36.9511 43.6801 37.0765 43.6586 37.2054C43.6263 37.4004 43.5941 37.592 43.5475 37.7835C43.5259 37.8845 43.4973 37.982 43.4722 38.083C43.3684 38.4889 43.2415 38.8888 43.092 39.281C43.0634 39.3507 43.0418 39.4203 43.0132 39.49C42.9414 39.6641 42.8626 39.8383 42.7837 40.0019C42.7406 40.0855 42.7012 40.1691 42.6617 40.2527C42.6617 40.2283 42.6438 40.2039 42.6366 40.183C42.6008 40.0716 42.5577 39.9636 42.5183 39.8557C42.4179 39.5562 42.3067 39.2601 42.1848 38.9676C42.1238 38.8248 42.0593 38.6855 41.9948 38.5462C41.8764 38.292 41.7509 38.0377 41.6362 37.7939C41.5609 37.6546 41.4856 37.5153 41.4067 37.3795C41.2596 37.1253 41.1019 36.878 40.9405 36.6377C40.8652 36.5228 40.7935 36.4044 40.7146 36.2894C40.4707 35.9412 40.2126 35.5929 39.94 35.283L39.8647 35.2029C39.6101 34.9068 39.3448 34.6247 39.0651 34.3496C38.9647 34.2486 38.8571 34.1546 38.7531 34.0571C38.5415 33.8621 38.3264 33.6705 38.104 33.4859L37.7455 33.1864C37.5231 33.0158 37.2936 32.8382 37.0605 32.6884C36.935 32.6013 36.8095 32.5143 36.6804 32.4307C36.4043 32.2566 36.121 32.0824 35.8342 31.9327C35.7409 31.8804 35.6513 31.8247 35.558 31.776C35.1744 31.574 34.7799 31.3894 34.3783 31.2222C34.2779 31.1804 34.1703 31.1456 34.0663 31.1073C33.7615 30.9854 33.4495 30.874 33.134 30.759L32.6319 30.6685C32.3487 30.5884 32.0618 30.5152 31.7713 30.4526L31.2908 30.355C30.9872 30.2993 30.6788 30.254 30.3657 30.2192C30.2222 30.2192 30.0788 30.1774 29.9318 30.1635C29.4763 30.1252 29.0174 30.0973 28.5476 30.0973C27.9867 30.0993 27.4263 30.133 26.8694 30.1983C26.6722 30.2192 26.4785 30.254 26.2849 30.2854C25.9263 30.3376 25.5928 30.3968 25.2521 30.4735C25.0155 30.5257 24.7824 30.5849 24.535 30.6476C24.2875 30.7103 23.9648 30.8182 23.6851 30.9123C23.4054 31.0063 23.1902 31.0794 22.9464 31.1735C22.7026 31.2675 22.4265 31.4033 22.1683 31.5217C21.9101 31.6401 21.7523 31.6924 21.5515 31.7968C22.1207 30.1984 23.0605 28.7483 24.2983 27.5585ZM41.6147 20.5932C44.2402 20.5999 46.7836 21.4832 48.8181 23.0951C50.8525 24.707 52.2543 26.9494 52.7883 29.4461C52.8529 29.7595 52.8995 30.0799 52.939 30.4003C52.939 30.4526 52.9569 30.5013 52.9605 30.5535C53.0007 30.9272 53.0211 31.3027 53.0214 31.6784C53.0214 32.0267 52.9999 32.375 52.9676 32.7232C52.9676 32.8277 52.939 32.9322 52.9282 33.0367C52.8959 33.277 52.8601 33.5103 52.817 33.7332C52.7919 33.8481 52.7704 33.9596 52.7453 34.0815C52.6915 34.3148 52.627 34.5481 52.5588 34.778C52.5302 34.8685 52.5086 34.9626 52.4764 35.0566C52.3724 35.37 52.2576 35.6835 52.1178 35.9865C52.1178 36.0143 52.0891 36.0457 52.0747 36.0735C51.9564 36.3452 51.8201 36.6133 51.6767 36.8745C51.6301 36.9651 51.5763 37.0521 51.5225 37.1392C51.4078 37.3412 51.2823 37.5397 51.1639 37.7313L50.981 37.9994C50.834 38.2014 50.6834 38.3964 50.5256 38.588C50.4754 38.6507 50.4252 38.7203 50.3679 38.783C50.1527 39.0338 49.9304 39.2741 49.6901 39.5074L49.5754 39.6119C49.3746 39.8034 49.1666 39.988 48.9478 40.1656C48.8689 40.2318 48.7865 40.2945 48.704 40.3572C48.5175 40.5 48.3275 40.6393 48.1338 40.7716C48.0442 40.8308 47.9581 40.8935 47.8649 40.9492C47.6462 41.0885 47.4238 41.2209 47.1943 41.3462C47.1262 41.3845 47.0652 41.4228 46.9971 41.4577C46.6995 41.6144 46.3947 41.7572 46.0791 41.886L45.8819 41.9627C45.699 42.0358 45.5233 42.0985 45.3225 42.1612C45.5802 41.6914 45.8101 41.2077 46.011 40.7124C46.0719 40.5696 46.1186 40.4198 46.1723 40.2736C46.3086 39.9253 46.4305 39.5492 46.5309 39.1765C46.5811 39.0024 46.6242 38.8283 46.6672 38.6507C46.7533 38.2792 46.825 37.9031 46.8824 37.5223C46.9075 37.3621 46.9361 37.2019 46.9577 37.0417C47.023 36.4995 47.0577 35.9542 47.0616 35.4083C47.0731 32.1056 45.896 28.9028 43.7339 26.3535C43.4254 25.9888 43.0974 25.6401 42.7514 25.3087C42.3534 24.9247 41.9332 24.5631 41.4927 24.2256C41.3601 24.1211 41.2202 24.0306 41.0839 23.9331C40.7684 23.7032 40.4421 23.4873 40.1086 23.2853C39.9544 23.1878 39.7966 23.0972 39.6352 23.0067C39.2766 22.8117 38.918 22.6375 38.5595 22.4738C38.4196 22.4077 38.2833 22.338 38.1399 22.2788C37.6345 22.0676 37.1173 21.8839 36.5908 21.7286H36.5657C38.1361 20.9774 39.8641 20.5888 41.6147 20.5932ZM60.4263 41.4646C60.4263 41.4855 60.4012 41.5064 60.3869 41.5238C60.2183 41.7781 60.0283 42.0219 59.8311 42.2622C59.788 42.3144 59.7522 42.3736 59.7056 42.4258C59.4619 42.7157 59.2034 42.9935 58.931 43.2582C58.6836 43.4985 58.4254 43.7214 58.16 43.9373C58.0668 44.0139 57.97 44.0836 57.8732 44.1567C57.701 44.2856 57.5146 44.4144 57.3496 44.5328C57.2277 44.6164 57.0986 44.6965 56.9731 44.7766C56.8476 44.8567 56.6647 44.9577 56.5105 45.0448C56.3563 45.1319 56.2165 45.2085 56.0695 45.2816C55.9224 45.3547 55.7933 45.4105 55.6571 45.4731C55.3065 45.6332 54.9474 45.7751 54.5813 45.898L54.3482 45.9781C54.1546 46.0373 53.9538 46.0896 53.7565 46.1383C53.6346 46.1697 53.5127 46.201 53.3979 46.2254C53.2079 46.2672 53.0143 46.3055 52.8242 46.3368L52.3975 46.3995C52.2146 46.4204 52.0389 46.4483 51.8488 46.4622C51.6588 46.4762 51.4149 46.4866 51.1962 46.4936C50.9775 46.5005 50.7121 46.4936 50.479 46.4936C50.3069 46.4936 50.1204 46.4936 49.9626 46.4692C49.8049 46.4448 49.6041 46.4344 49.4176 46.41L48.9945 46.3508C48.8008 46.3194 48.6108 46.2881 48.4207 46.2463C48.306 46.2219 48.1912 46.1906 48.0621 46.1627C47.6627 46.0672 47.2689 45.951 46.8824 45.8144L46.6385 45.7309C46.4628 45.6612 46.2799 45.5846 46.115 45.5045L45.8568 45.3896L45.9321 45.3652L46.2548 45.2537C46.5704 45.1528 46.8788 45.0448 47.1836 44.9264L47.6067 44.7453C47.8721 44.6304 48.1374 44.505 48.3992 44.3726L48.808 44.1602C49.0769 44.0139 49.3387 43.8572 49.5969 43.697C49.7045 43.6274 49.8192 43.5612 49.9268 43.488C50.2854 43.2477 50.644 42.997 50.9739 42.7288L51.0097 42.6975C51.3325 42.4363 51.6409 42.1612 51.9385 41.8791C52.0353 41.785 52.125 41.6875 52.2182 41.5935C52.4298 41.3811 52.6306 41.1651 52.8278 40.9422C52.9282 40.8273 53.025 40.7124 53.1218 40.594C53.3047 40.3711 53.4804 40.1447 53.649 39.8975C53.7314 39.779 53.8211 39.6641 53.9036 39.5492C54.09 39.2741 54.2622 38.9955 54.4307 38.7064C54.4773 38.6228 54.5311 38.5427 54.5777 38.4591C54.7857 38.083 54.9757 37.6999 55.1515 37.3099C55.1945 37.2123 55.2268 37.1148 55.2662 37.0173C55.3917 36.7143 55.5101 36.4113 55.6248 36.1014C55.6714 35.9586 55.7144 35.8123 55.7575 35.6661C55.84 35.3909 55.9153 35.1123 55.9798 34.8302C56.0157 34.6735 56.0479 34.5203 56.0802 34.3636C56.1376 34.0687 56.1842 33.7692 56.2201 33.465C56.238 33.3257 56.2631 33.1864 56.2738 33.0471C56.3169 32.6013 56.3456 32.1556 56.3456 31.7028C56.3436 31.1569 56.3089 30.6115 56.2416 30.0695C56.2201 29.8779 56.1806 29.6899 56.1519 29.4983C56.0981 29.15 56.0372 28.8296 55.9583 28.4988C55.9045 28.2689 55.8435 28.0426 55.779 27.8023C55.7144 27.562 55.6069 27.2555 55.5065 26.9839C55.4061 26.7122 55.3343 26.4963 55.2339 26.2595C55.1335 26.0226 55.0044 25.7684 54.8753 25.5281C54.7463 25.2878 54.6889 25.1102 54.5777 24.9082C56.2197 25.4593 57.7108 26.3664 58.9379 27.5608C60.1649 28.7551 61.0956 30.2053 61.6594 31.8012C62.2232 33.3971 62.4051 35.0968 62.1915 36.7712C61.9778 38.4456 61.3742 40.0507 60.4263 41.4646ZM66.1028 44.3866C66.0999 46.9335 65.1959 49.4022 63.5423 51.379C61.8887 53.3558 59.586 54.7209 57.0197 55.2454H56.9767C56.6611 55.3081 56.3384 55.3499 56.0121 55.3882C55.9547 55.3882 55.8973 55.4091 55.8364 55.4126C55.4516 55.4517 55.065 55.4714 54.6781 55.4718C54.3195 55.4718 53.9609 55.4509 53.6023 55.4196L53.276 55.3778C53.0322 55.3499 52.7919 55.3151 52.5588 55.2733C52.4405 55.2489 52.3222 55.228 52.2003 55.2001C51.96 55.1514 51.7233 55.0887 51.4831 55.026L51.1854 54.9424C50.8627 54.8414 50.5436 54.73 50.2352 54.5942C50.1957 54.5942 50.1563 54.5593 50.1168 54.5419C49.8479 54.427 49.5825 54.3051 49.3244 54.1693C49.2239 54.1205 49.1271 54.0648 49.0303 54.0091C48.8295 53.9011 48.6359 53.7862 48.4458 53.6608C48.3454 53.5981 48.245 53.5354 48.1482 53.4693C47.951 53.3369 47.7609 53.1941 47.5744 53.0514L47.3449 52.8772C47.0915 52.6729 46.8525 52.457 46.6278 52.2295C46.5776 52.1807 46.5309 52.1285 46.4843 52.0797C46.2978 51.8951 46.1257 51.7071 45.95 51.512C45.8747 51.425 45.8066 51.3379 45.7313 51.2474C45.5914 51.0767 45.4587 50.8991 45.3297 50.725C45.2615 50.6309 45.1934 50.5369 45.1288 50.4394C44.9926 50.2397 44.8635 50.0342 44.7416 49.823C44.6985 49.7498 44.6483 49.6767 44.6089 49.6001C44.4511 49.3145 44.3041 49.022 44.1714 48.7224C44.1391 48.6493 44.114 48.5762 44.0818 48.503C44.0148 48.3289 43.9503 48.1548 43.8881 47.9806C44.3706 48.2309 44.8675 48.4542 45.3763 48.6493C45.5305 48.7085 45.6847 48.7573 45.8353 48.8095C46.1939 48.9384 46.5775 49.0568 46.9541 49.1578C47.1405 49.2065 47.3127 49.2483 47.5099 49.2901C47.8864 49.3772 48.2665 49.4434 48.6502 49.4991C48.8223 49.5235 49.0088 49.5548 49.1666 49.5722C49.7225 49.6357 50.2815 49.6694 50.8412 49.6732C52.7729 49.6786 54.6866 49.312 56.4715 48.5947C58.2565 47.8773 59.8773 46.8235 61.2403 45.494C61.6358 45.1063 62.0081 44.6971 62.3555 44.2682C62.4595 44.1393 62.5564 44.0035 62.6604 43.8711C62.8934 43.5647 63.1158 43.2512 63.3237 42.9273C63.4206 42.7741 63.5174 42.6209 63.6106 42.4607C63.8066 42.124 63.9895 41.7758 64.1593 41.4159C64.2238 41.2801 64.2991 41.1477 64.3601 41.0084C64.5776 40.5175 64.7667 40.0152 64.9266 39.5039V39.4795C65.7007 41.0024 66.1031 42.6779 66.1028 44.3761V44.3866ZM58.931 61.2042C57.0729 63.0057 54.6335 64.1319 52.0218 64.3938C49.4102 64.6557 46.7853 64.0374 44.5874 62.6425L44.5479 62.6216C44.2826 62.451 44.0244 62.2734 43.7698 62.0644L43.6192 61.9565C43.3188 61.7207 43.0315 61.4696 42.7586 61.2042C42.504 60.9569 42.2709 60.6992 42.0414 60.4345C41.9697 60.3544 41.9051 60.2674 41.8406 60.1838C41.6864 59.9957 41.5429 59.8042 41.4031 59.6092L41.2059 59.3201C41.0732 59.1181 40.9477 58.9091 40.8473 58.7002C40.7971 58.6166 40.7469 58.533 40.7002 58.446C40.5425 58.1488 40.399 57.8493 40.2699 57.5474L40.2377 57.4569C40.1265 57.1818 40.0261 56.8997 39.9364 56.6176C39.9042 56.5201 39.8791 56.4191 39.8504 56.3181C39.7858 56.0987 39.732 55.8758 39.6818 55.6529L39.6173 55.329C39.5743 55.0922 39.5384 54.8554 39.5133 54.6325C39.5133 54.5454 39.4882 54.4583 39.481 54.3713C39.4488 54.0474 39.4344 53.7235 39.4308 53.3996C39.4308 53.3439 39.4308 53.2917 39.4308 53.2359C39.4308 52.9643 39.4308 52.6961 39.4703 52.4245C39.4703 52.32 39.4918 52.2155 39.5061 52.111C39.5312 51.8847 39.5635 51.6618 39.603 51.4389C39.6245 51.3309 39.6424 51.223 39.6675 51.1185C39.7177 50.8747 39.7787 50.6344 39.8468 50.3976C39.8683 50.3175 39.8862 50.2409 39.9113 50.1608C40.0082 49.8508 40.1193 49.5409 40.2448 49.2344L40.3345 49.0359C40.4098 48.8618 40.4958 48.6876 40.5855 48.5135L40.607 48.5797C40.6393 48.6841 40.6823 48.7851 40.7182 48.8861C40.8222 49.1961 40.9333 49.4991 41.0588 49.7951C41.1198 49.9344 41.1808 50.0702 41.2453 50.2026C41.3636 50.4638 41.4891 50.7215 41.6254 50.9757C41.6971 51.108 41.7724 51.2439 41.8477 51.3727C41.9983 51.6339 42.1561 51.8847 42.3247 52.1354C42.3964 52.2434 42.4645 52.3548 42.5398 52.4628C42.7872 52.8111 43.0454 53.1593 43.3215 53.4762L43.3646 53.5215C43.6263 53.8315 43.906 54.124 44.1929 54.4096C44.2933 54.5071 44.3973 54.5976 44.4977 54.6917C44.7129 54.8902 44.928 55.0852 45.1539 55.2733L45.5125 55.5658C45.7384 55.74 45.9679 55.9141 46.2046 56.0673C46.3301 56.1544 46.452 56.2415 46.5811 56.3216C46.8573 56.4992 47.1441 56.6698 47.4346 56.8265C47.5242 56.8753 47.6103 56.931 47.7035 56.9798C48.0872 57.1783 48.4781 57.3629 48.8833 57.53C48.9837 57.5753 49.0913 57.6101 49.1953 57.6484C49.5001 57.7703 49.812 57.8818 50.1276 57.9967L50.5758 58.1256C50.8591 58.2057 51.146 58.2788 51.4365 58.3415L51.917 58.439C52.2206 58.4947 52.529 58.54 52.8421 58.5748C52.9856 58.5748 53.129 58.6166 53.2724 58.6271C53.7314 58.6688 54.1904 58.6967 54.6566 58.6967C55.2187 58.6948 55.7803 58.6611 56.3384 58.5957C56.532 58.5748 56.7257 58.54 56.9193 58.5086C57.2779 58.4564 57.615 58.3972 57.9592 58.3206C58.1923 58.2683 58.4218 58.2091 58.6513 58.1465C58.9454 58.0663 59.2322 57.9758 59.5191 57.8783C59.806 57.7808 60.0032 57.7146 60.2363 57.6206C60.4694 57.5265 60.7921 57.3768 61.0682 57.2479C61.2547 57.1574 61.4519 57.0877 61.6384 56.9902C61.0748 58.5722 60.1492 60.0094 58.931 61.1938V61.2042ZM41.6147 68.1695C38.9897 68.1661 36.4458 67.2863 34.4095 65.6776C32.3731 64.069 30.9682 61.8292 30.4302 59.334C30.4286 59.3248 30.4286 59.3154 30.4302 59.3062C30.3657 58.9962 30.319 58.6793 30.2796 58.3624C30.2796 58.3067 30.2796 58.2544 30.2581 58.1987C30.2178 57.825 30.1975 57.4495 30.1971 57.0738C30.1971 56.7255 30.2186 56.3773 30.2509 56.029C30.2509 55.9245 30.2796 55.8201 30.2903 55.7121C30.3226 55.4753 30.3585 55.2419 30.4015 55.0156C30.423 54.9006 30.4481 54.7857 30.4732 54.6673C30.527 54.434 30.588 54.2041 30.6561 53.9708C30.6848 53.8767 30.7099 53.7792 30.7422 53.6887C30.8462 53.3718 30.9609 53.0618 31.1008 52.7588C31.1008 52.7275 31.1295 52.6961 31.1438 52.6648C31.2657 52.3966 31.3984 52.1319 31.5382 51.8742C31.5884 51.7802 31.6422 51.6897 31.696 51.5991C31.8144 51.4006 31.9327 51.2056 32.0546 51.0175C32.1156 50.9235 32.1801 50.8329 32.2447 50.7389C32.3845 50.5439 32.5315 50.3558 32.6857 50.1712C32.7431 50.0981 32.7969 50.025 32.8579 49.9588C33.0681 49.7082 33.2919 49.4688 33.5284 49.2414C33.5679 49.1996 33.6145 49.1613 33.6575 49.123C33.8547 48.9349 34.0591 48.7573 34.2671 48.5831L34.5253 48.3811C34.7082 48.2418 34.8839 48.106 35.0811 47.9772L35.3644 47.7891C35.5724 47.6568 35.7911 47.5279 36.0099 47.4095C36.0852 47.3677 36.1569 47.3224 36.2322 47.2841C36.5262 47.1309 36.8275 46.9881 37.1394 46.8592C37.2076 46.8279 37.2793 46.807 37.351 46.7791C37.5339 46.706 37.7096 46.6433 37.9068 46.5806L37.8745 46.6433C37.8208 46.7408 37.7777 46.8418 37.7239 46.9393C37.5769 47.2284 37.4371 47.5209 37.308 47.8135C37.2506 47.9528 37.1968 48.0921 37.143 48.2279C37.0354 48.4961 36.9386 48.7642 36.8526 49.0359C36.8059 49.1822 36.7593 49.3249 36.7163 49.4712C36.6338 49.7568 36.5621 50.0458 36.4976 50.3384C36.4725 50.4638 36.4402 50.5891 36.4151 50.7145C36.3362 51.1324 36.2716 51.5503 36.2286 51.9683C36.2286 51.9857 36.2286 52.0031 36.2286 52.0205C36.1892 52.4245 36.1712 52.8285 36.1712 53.2325C36.1712 53.3648 36.1712 53.4971 36.1712 53.6295C36.1712 53.922 36.1712 54.2146 36.2143 54.5036C36.2143 54.6534 36.243 54.8066 36.2609 54.9564C36.2932 55.235 36.3362 55.5171 36.3828 55.7957C36.4115 55.9385 36.433 56.0813 36.4653 56.224C36.5298 56.5444 36.6123 56.8614 36.702 57.1783C36.7306 57.2723 36.7486 57.3663 36.7773 57.4604C36.9028 57.8678 37.0498 58.2683 37.2112 58.6654C37.2506 58.7629 37.3008 58.8569 37.3438 58.9509C37.4729 59.2504 37.6128 59.5465 37.7634 59.839C37.8351 59.9713 37.9104 60.1037 37.9857 60.236C38.1291 60.4868 38.2798 60.734 38.4375 60.9813C38.5272 61.1137 38.6132 61.246 38.7065 61.3783C38.8822 61.6291 39.0651 61.8729 39.2623 62.1132C39.3519 62.2211 39.4344 62.3361 39.5276 62.444C39.8217 62.7923 40.1265 63.1231 40.4564 63.4435C40.8556 63.8276 41.277 64.1892 41.7186 64.5266C41.8513 64.6276 41.9876 64.7217 42.1238 64.8192C42.4394 65.049 42.7657 65.2649 43.1028 65.4704C43.257 65.5645 43.4148 65.655 43.5726 65.7456C43.9312 65.9406 44.2897 66.1182 44.6483 66.2819C44.7846 66.3446 44.9209 66.4142 45.0607 66.4734C45.5671 66.6852 46.0855 66.8689 46.6134 67.0237H46.6385C45.0748 67.7689 43.3565 68.1572 41.6147 68.159V68.1695ZM24.2983 61.2042C22.4408 59.3961 21.2813 57.0219 21.0148 54.4809C20.7483 51.94 21.3912 49.3874 22.8352 47.2528C23.0217 46.9776 23.2261 46.713 23.4413 46.4553C23.47 46.4204 23.4915 46.3821 23.5202 46.3508C23.764 46.0617 24.0222 45.7831 24.2983 45.5149C24.5744 45.2468 24.8039 45.0483 25.0693 44.8184L25.349 44.606C25.5247 44.4736 25.7076 44.3448 25.8797 44.2229L26.2383 43.9861C26.3925 43.8886 26.5502 43.798 26.7116 43.7109C26.873 43.6239 26.9985 43.5507 27.1419 43.4776C27.2854 43.4045 27.4252 43.3453 27.5686 43.2826C27.9272 43.1259 28.2858 42.9865 28.6444 42.8647C28.7269 42.8403 28.8058 42.8055 28.8918 42.7811C29.0855 42.7184 29.2827 42.6696 29.4799 42.6209L29.8385 42.5303C30.0286 42.4885 30.2222 42.4537 30.4159 42.4224C30.5521 42.398 30.692 42.3806 30.8318 42.3597C30.9717 42.3388 31.1904 42.3109 31.3876 42.297C31.5849 42.2831 31.7964 42.2726 32.0044 42.2656C32.2124 42.2587 32.5208 42.2656 32.779 42.2656C32.9439 42.2656 33.1125 42.2656 33.281 42.29C33.4495 42.3144 33.6396 42.3249 33.8332 42.3492C34.0269 42.3736 34.1093 42.3841 34.2492 42.4084C34.4428 42.4398 34.6365 42.4711 34.8301 42.5129L35.1564 42.593C35.5658 42.6864 35.9693 42.8027 36.3649 42.9413C36.4402 42.9691 36.5155 42.99 36.5908 43.0214C36.7701 43.0875 36.9494 43.1676 37.1179 43.2477C37.204 43.2826 37.29 43.3244 37.3725 43.3627L37.3008 43.3871L36.9745 43.495C36.6625 43.5995 36.3505 43.7075 36.0493 43.8433L35.6262 44.0244C35.3572 44.1393 35.0955 44.2647 34.8373 44.3935L34.4213 44.6095C34.156 44.7557 33.8978 44.909 33.6396 45.0692L33.3025 45.2816C32.9439 45.5219 32.5853 45.7727 32.259 46.0408L32.2052 46.0896C31.8897 46.3438 31.5884 46.6085 31.298 46.8871C31.1976 46.9846 31.1044 47.0856 31.0075 47.1831C30.7995 47.3921 30.5987 47.6045 30.4087 47.8239C30.3035 47.9377 30.2031 48.0538 30.1075 48.1722C29.9282 48.3916 29.7489 48.6145 29.5911 48.8443C29.5014 48.9662 29.4118 49.0846 29.3293 49.21C29.1429 49.4782 28.9707 49.7568 28.8094 50.0389C28.7556 50.1259 28.7018 50.2095 28.6516 50.3001C28.4436 50.6727 28.2536 51.0523 28.0814 51.4459C28.0384 51.5434 28.0025 51.6479 27.9631 51.7454C27.8376 52.0449 27.7228 52.3444 27.6045 52.6543C27.5579 52.7971 27.5149 52.9434 27.4718 53.0897C27.3893 53.3648 27.314 53.6434 27.2495 53.9255C27.2136 54.0787 27.1778 54.2355 27.1491 54.3922C27.0917 54.6882 27.0451 54.9877 27.0057 55.2907C27.0057 55.43 26.9662 55.5693 26.9519 55.7086C26.9088 56.1544 26.8837 56.6002 26.8837 57.0529C26.8857 57.5989 26.9204 58.1442 26.9877 58.6863C27.0092 58.8743 27.0451 59.0624 27.0774 59.2505C27.1312 59.5987 27.1921 59.9261 27.271 60.2569C27.3248 60.4868 27.3858 60.7097 27.4503 60.936C27.5328 61.2181 27.626 61.4933 27.7228 61.7684C27.8197 62.0435 27.8914 62.2455 27.9918 62.4649C28.0922 62.6843 28.232 62.9803 28.3504 63.2346C28.4436 63.4296 28.5225 63.6316 28.6301 63.8231C26.9992 63.2776 25.5178 62.3784 24.2983 61.1938V61.2042Z" fill="#135594"/> <path d="M264.443 31.1456C264.443 30.4568 264.653 29.7835 265.048 29.2108C265.442 28.638 266.002 28.1917 266.657 27.9281C267.312 27.6645 268.033 27.5955 268.729 27.7299C269.424 27.8643 270.063 28.196 270.565 28.683C271.066 29.1701 271.408 29.7906 271.546 30.4662C271.684 31.1417 271.613 31.842 271.342 32.4783C271.071 33.1147 270.611 33.6586 270.021 34.0413C269.432 34.424 268.738 34.6282 268.029 34.6282C267.554 34.6448 267.08 34.566 266.637 34.3969C266.194 34.2277 265.792 33.9718 265.456 33.645C265.119 33.3183 264.856 32.9277 264.681 32.4977C264.507 32.0677 264.426 31.6074 264.443 31.1456ZM265.372 31.1456C265.372 32.7232 266.405 33.7924 268.047 33.7924C269.689 33.7924 270.736 32.7232 270.736 31.1456C270.736 29.568 269.686 28.4814 268.047 28.4814C266.408 28.4814 265.372 29.5506 265.372 31.1456ZM268.958 31.4939L269.836 32.8416H268.517L267.8 31.6088H267.699V32.8416H266.562V29.3381H268.355C269.134 29.3381 269.657 29.7978 269.657 30.4874C269.664 30.7064 269.6 30.922 269.476 31.1047C269.351 31.2873 269.172 31.4282 268.961 31.5078L268.958 31.4939ZM267.67 30.2784V30.7869H268.212C268.249 30.7904 268.287 30.7861 268.322 30.7743C268.358 30.7624 268.39 30.7433 268.418 30.7182C268.445 30.6931 268.466 30.6626 268.48 30.6288C268.494 30.595 268.501 30.5586 268.499 30.5222C268.499 30.3411 268.363 30.2784 268.212 30.2784H267.67Z" fill="#135594"/> </svg>