<svg width="701" height="167" viewBox="0 0 701 167" fill="none" xmlns="http://www.w3.org/2000/svg">
<path d="M253.5 47.5001L249 52.0001H244.5L243.1 46.3001C242.8 44.9001 241.5 44.0001 240 44.0001H211.2C209.4 44.0001 208 45.4001 208 47.0001V56.9001C208 58.6001 209.4 59.9001 211.2 59.9001H228.2V106.3H208.4C206.6 106.3 205.2 107.7 205.2 109.3V119.2C205.2 120.9 206.6 122.2 208.4 122.2H270.7C272.5 122.2 273.9 120.8 273.9 119.2V109.3C273.9 107.6 272.5 106.3 270.7 106.3H247.8V73.5001C247.8 64.3001 253.2 59.5001 263.8 59.5001H281C282.8 59.5001 284.2 58.1001 284.2 56.5001V45.6001C284.2 43.9001 282.8 42.6001 281 42.6001H270.8C263.3 42.5001 257.4 43.9001 253.5 47.5001Z" fill="#0D1525"/>
<path d="M331.2 42.5C306 42.5 292.5 55.9 292.5 83.1C292.5 110.4 305.9 123.8 330.7 123.8C349.9 123.8 362.3 115.8 365.6 102.1C366.1 100.2 364.5 98.4 362.5 98.4H350.5C349.2 98.4 348 99.2 347.5 100.4C345.4 106.3 339.4 109.1 331.3 109.1C318.7 109.1 312.7 102.2 311.9 86.1H366.6C369.6 56 357.1 42.5 331.2 42.5ZM312.5 73.9C314.4 62.1 320.3 56.6 331.1 56.6C342.6 56.6 348 62.7 348.3 73.9H312.5Z" fill="#0D1525"/>
<path d="M428.5 42.5C421.7 42.5 416.8 44 413 47.6L408.3 52.1H404L402.4 46.3C402 45 400.8 44 399.3 44H390.3C388.5 44 387.1 45.4 387.1 47V149.4C387.1 151.1 388.5 152.4 390.3 152.4H403.5C405.3 152.4 406.7 151 406.7 149.4V127.2L405 115.3L409.4 114.3L414.1 118.8C417.8 122.2 422.3 123.9 429 123.9C448.4 123.9 460.1 110.5 460.1 83.2C460 55.9 448.4 42.5 428.5 42.5ZM422 107.5C412.1 107.5 406.6 102.4 406.6 92.7V73.5C406.6 63.8 412 58.7 422 58.7C434.1 58.7 439.6 66.3 439.6 83C439.5 99.9 434.1 107.5 422 107.5Z" fill="#0D1525"/>
<path d="M700.8 56.9V47C700.8 45.3 699.4 44 697.6 44H662.9V24.8C662.9 23.1 661.5 21.8 659.7 21.8H646.5C644.7 21.8 643.3 23.2 643.3 24.8V44H622.8C621 44 619.6 45.4 619.6 47V56.9C619.6 58.6 621 59.9 622.8 59.9H643.3V89.3C643.3 111.8 653.9 122.2 676.7 122.2H695.3C697.1 122.2 698.5 120.8 698.5 119.2V109.3C698.5 107.6 697.1 106.3 695.3 106.3H679.7C667.3 106.3 662.9 101.4 662.9 89.2V60H697.6C699.4 59.9 700.8 58.5 700.8 56.9Z" fill="#0D1525"/>
<path d="M537.1 106.3H516.7V16.8C516.7 15.1 515.3 13.8 513.5 13.8H473.5C471.7 13.8 470.3 15.2 470.3 16.8V26.7C470.3 28.4 471.7 29.7 473.5 29.7H497.1V106.3H470.6C468.8 106.3 467.4 107.7 467.4 109.3V119.2C467.4 120.9 468.8 122.2 470.6 122.2H537.1C538.9 122.2 540.3 120.8 540.3 119.2V109.3C540.3 107.6 538.9 106.3 537.1 106.3Z" fill="#0D1525"/>
<path d="M596.5 13.8H578.5C576.7 13.8 575.3 15.2 575.3 16.8V29.5C575.3 31.2 576.7 32.5 578.5 32.5H596.5C598.3 32.5 599.7 31.1 599.7 29.5V16.8C599.6 15.1 598.2 13.8 596.5 13.8Z" fill="#0D1525"/>
<path d="M598.9 106.3V47C598.9 45.3 597.5 44 595.7 44H555.4C553.6 44 552.2 45.4 552.2 47V56.9C552.2 58.6 553.6 59.9 555.4 59.9H579.3V106.3H555.4C553.6 106.3 552.2 107.7 552.2 109.3V119.2C552.2 120.9 553.6 122.2 555.4 122.2H623.4C625.2 122.2 626.6 120.8 626.6 119.2V109.3C626.6 107.6 625.2 106.3 623.4 106.3H598.9Z" fill="#0D1525"/>
<path d="M70.2 55.4H11.3C5.50003 55.4 0.900024 50.7 0.900024 45V10.4C0.900024 4.59999 5.60003 0 11.3 0H59.8C65.6 0 70.2 4.69999 70.2 10.4V55.4Z" fill="#F5640C"/>
<path d="M129.1 110.8H70.2001V55.3H129.1C134.8 55.3 139.5 60 139.5 65.7V100.4C139.5 106.2 134.8 110.8 129.1 110.8Z" fill="#F5640C"/>
<path d="M59.8 166.3H11.3C5.60003 166.3 0.900024 161.6 0.900024 155.9V121.2C0.900024 115.5 5.60003 110.8 11.3 110.8H70.2V155.9C70.2 161.6 65.5 166.3 59.8 166.3Z" fill="#F5640C"/>
</svg>
