<svg width="270" height="79" viewBox="0 0 270 79" fill="none" xmlns="http://www.w3.org/2000/svg">
<path d="M138.716 25.5908H125.903V59.2053H118.803V25.5908H105.989V19.3782H138.716V25.5908ZM162.069 44.6723C162.069 53.7138 156.245 59.8155 148.035 59.8155C139.826 59.8155 134.001 53.7138 134.001 44.6723C134.001 35.6307 139.826 29.5291 148.035 29.5291C156.245 29.5291 162.069 35.6307 162.069 44.6723ZM140.713 44.6723C140.713 50.6075 143.542 54.2131 148.035 54.2131C152.528 54.2131 155.357 50.6075 155.357 44.6723C155.357 38.737 152.528 35.1315 148.035 35.1315C143.542 35.1315 140.713 38.737 140.713 44.6723ZM181.728 59.8155C177.956 59.8155 175.182 58.3178 173.352 56.1545V59.2053H166.696V19.3782H173.352V33.1901C175.182 31.0268 177.956 29.5291 181.728 29.5291C189.882 29.5291 194.541 36.4073 194.541 44.6723C194.541 52.9373 189.882 59.8155 181.728 59.8155ZM173.185 43.8402V45.5598C173.185 50.9404 176.292 53.9912 180.397 53.9912C185.222 53.9912 187.829 50.2192 187.829 44.6723C187.829 39.1253 185.222 35.3534 180.397 35.3534C176.292 35.3534 173.185 38.3488 173.185 43.8402ZM199.019 26.2009V19.3782H205.897V26.2009H199.019ZM205.786 30.0838V59.2053H199.13V30.0838H205.786ZM218.882 19.3782V42.3426L230.087 30.0838H238.241L227.258 41.3996L239.129 59.2053H231.419L222.71 46.059L218.882 49.9419V59.2053H212.226V19.3782H218.882ZM266.781 44.6723C266.781 53.7138 260.957 59.8155 252.747 59.8155C244.538 59.8155 238.713 53.7138 238.713 44.6723C238.713 35.6307 244.538 29.5291 252.747 29.5291C260.957 29.5291 266.781 35.6307 266.781 44.6723ZM245.425 44.6723C245.425 50.6075 248.254 54.2131 252.747 54.2131C257.24 54.2131 260.069 50.6075 260.069 44.6723C260.069 38.737 257.24 35.1315 252.747 35.1315C248.254 35.1315 245.425 38.737 245.425 44.6723Z" fill="#0D0D0D"/>
<path d="M10.0665 49.2235C15.6271 49.2235 20.1349 44.7157 20.1349 39.1551C20.1349 33.5945 15.6271 29.0867 10.0665 29.0867C4.50583 29.0867 -0.00195312 33.5945 -0.00195312 39.1551C-0.00195312 44.7157 4.50583 49.2235 10.0665 49.2235Z" fill="#F74808"/>
<path d="M14.5421 21.3854C19.5466 21.3854 23.6036 17.3284 23.6036 12.3238C23.6036 7.31923 19.5466 3.26221 14.5421 3.26221C9.53748 3.26221 5.48047 7.31923 5.48047 12.3238C5.48047 17.3284 9.53748 21.3854 14.5421 21.3854Z" fill="#F74808"/>
<path d="M14.5421 75.0836C19.5466 75.0836 23.6036 71.0266 23.6036 66.022C23.6036 61.0175 19.5466 56.9604 14.5421 56.9604C9.53748 56.9604 5.48047 61.0175 5.48047 66.022C5.48047 71.0266 9.53748 75.0836 14.5421 75.0836Z" fill="#F74808"/>
<path d="M50.0646 39.1551C50.0646 44.7157 45.5568 49.2235 39.9962 49.2235C34.4355 49.2235 29.9277 44.7157 29.9277 39.1551C29.9277 33.5945 34.4355 29.0867 39.9962 29.0867C45.5568 29.0867 50.0646 33.5945 50.0646 39.1551Z" fill="#F74808"/>
<path d="M50.0646 10.0684C50.0646 15.6291 45.5568 20.1369 39.9962 20.1369C34.4355 20.1369 29.9277 15.6291 29.9277 10.0684C29.9277 4.5078 34.4355 0 39.9962 0C45.5568 0 50.0646 4.5078 50.0646 10.0684Z" fill="#F74808"/>
<path d="M50.0646 68.2415C50.0646 73.8021 45.5568 78.31 39.9962 78.31C34.4355 78.31 29.9277 73.8021 29.9277 68.2415C29.9277 62.6809 34.4355 58.1731 39.9962 58.1731C45.5568 58.1731 50.0646 62.6809 50.0646 68.2415Z" fill="#F74808"/>
<path d="M69.9268 49.2235C75.4875 49.2235 79.9953 44.7157 79.9953 39.1551C79.9953 33.5945 75.4875 29.0867 69.9268 29.0867C64.3662 29.0867 59.8584 33.5945 59.8584 39.1551C59.8584 44.7157 64.3662 49.2235 69.9268 49.2235Z" fill="#F74808"/>
<path d="M65.4522 21.3854C70.4568 21.3854 74.5138 17.3284 74.5138 12.3238C74.5138 7.31923 70.4568 3.26221 65.4522 3.26221C60.4476 3.26221 56.3906 7.31923 56.3906 12.3238C56.3906 17.3284 60.4476 21.3854 65.4522 21.3854Z" fill="#F74808"/>
<path d="M65.4522 75.0836C70.4568 75.0836 74.5138 71.0266 74.5138 66.022C74.5138 61.0175 70.4568 56.9604 65.4522 56.9604C60.4476 56.9604 56.3906 61.0175 56.3906 66.022C56.3906 71.0266 60.4476 75.0836 65.4522 75.0836Z" fill="#F74808"/>
</svg>
