<svg width="400" height="480" viewBox="0 0 400 480" fill="none" xmlns="http://www.w3.org/2000/svg">
<path d="M199.9 160.1H30.2C13.6 160.1 0.199951 146.7 0.199951 130.1V30.3C0.199951 13.7 13.6 0.300049 30.2 0.300049H169.9C186.5 0.300049 199.9 13.7 199.9 30.3V160.1Z" fill="#F5640C"/>
<path d="M369.6 319.8H199.9V160.1H369.6C386.1 160.1 399.5 173.5 399.5 190V289.8C399.5 306.4 386.1 319.8 369.6 319.8Z" fill="#F5640C"/>
<path d="M169.9 479.6H30.2C13.7 479.6 0.300049 466.2 0.300049 449.7V349.9C0.300049 333.4 13.7 320 30.2 320H199.9V449.8C199.9 466.1 186.5 479.6 169.9 479.6Z" fill="#F5640C"/>
</svg>
